<?xml version="1.0" encoding="UTF-8"?>
<svg width="370px" height="78px" viewBox="0 0 370 78" version="1.1" xmlns="http://www.w3.org/2000/svg" xmlns:xlink="http://www.w3.org/1999/xlink">
    <!-- Generator: Sketch 54.1 (76490) - https://sketchapp.com -->
    <title>로고</title>
    <desc>Created with Sketch.</desc>
    <defs>
        <linearGradient x1="0%" y1="100%" x2="100%" y2="0%" id="linearGradient-1">
            <stop stop-color="#403FF2" offset="0%"></stop>
            <stop stop-color="#C947D8" offset="100%"></stop>
        </linearGradient>
        <linearGradient x1="12.2486619%" y1="74.5820165%" x2="82.9651882%" y2="74.5820165%" id="linearGradient-2">
            <stop stop-color="#FFFFFF" stop-opacity="0" offset="0%"></stop>
            <stop stop-color="#FFFFFF" stop-opacity="0.1" offset="100%"></stop>
        </linearGradient>
        <linearGradient x1="84.8603271%" y1="0%" x2="84.8603271%" y2="71.3052156%" id="linearGradient-3">
            <stop stop-color="#FFFFFF" stop-opacity="0" offset="0%"></stop>
            <stop stop-color="#FFFFFF" stop-opacity="0.1" offset="100%"></stop>
        </linearGradient>
        <linearGradient x1="1.36601361%" y1="93.6010572%" x2="58.1890906%" y2="32.9416863%" id="linearGradient-4">
            <stop stop-color="#FFFFFF" stop-opacity="0" offset="0%"></stop>
            <stop stop-color="#FFFFFF" stop-opacity="0.0518568841" offset="100%"></stop>
        </linearGradient>
        <linearGradient x1="-46.0923062%" y1="20.1252834%" x2="7.4427311%" y2="49.0545302%" id="linearGradient-5">
            <stop stop-color="#FFFFFF" stop-opacity="0.15" offset="0%"></stop>
            <stop stop-color="#FFFFFF" stop-opacity="0" offset="100%"></stop>
        </linearGradient>
    </defs>
    <g id="Page-1" stroke="none" stroke-width="1" fill="none" fill-rule="evenodd">
        <g id="가로형_01">
            <g id="심볼">
                <g id="로고">
                    <path d="M8,0 L70,0 C74.418278,0 78,3.581722 78,8 L78,70 C78,74.418278 74.418278,78 70,78 L8,78 C3.581722,78 0,74.418278 0,70 L0,8 C0,3.581722 3.581722,0 8,0 Z" id="Mask" fill="url(#linearGradient-1)"></path>
                    <path d="M78,56.6596834 C53.7264372,72.0204474 24.3855687,73.0553083 -2.92737411e-06,61.894636 L-2.92737411e-06,8 C1.13686837e-13,3.581722 3.581722,0 7.99999707,0 L69.9999971,0 C74.418278,0 78,3.581722 77.9999971,8 L78,56.6596834 L78,56.6596834 Z" id="Path" fill="url(#linearGradient-2)"></path>
                    <path d="M67.666078,0 C76.964296,26.5987844 71.7986512,56.1632279 54.4420801,78.0000055 L8,78 C3.581722,78 5.68434189e-14,74.418278 5.68434189e-14,70 L5.68434189e-14,8 C5.68434189e-14,3.581722 3.581722,5.68434189e-14 8,0 L67.666078,5.68434189e-14 L67.666078,0 Z" id="Path" fill="url(#linearGradient-3)"></path>
                    <path d="M78,38.9612816 C63.1037479,59.4888456 38.9188521,72.8380165 11.6160903,72.8380165 C7.76540144,72.8380165 3.97673101,72.5724838 0.267390601,72.0587299 C0.0929560325,71.4018493 0,70.7117802 0,70 L0,8 C0,3.581722 3.581722,0 8,0 L70,0 C74.418278,0 78,3.581722 78,8 L78,38.9612816 L78,38.9612816 Z" id="Path" fill="url(#linearGradient-4)"></path>
                    <path d="M78,57.2590909 L0,57.2590909 L0,8 C0,3.581722 3.581722,0 8,0 L70,0 C74.418278,0 78,3.581722 78,8 L78,57.2590909 Z" id="Path" fill="url(#linearGradient-5)"></path>
                    <path d="M78,57.2590909 L0,57.2590909 L0,8 C0,3.581722 3.581722,0 8,0 L70,0 C74.418278,0 78,3.581722 78,8 L78,57.2590909 Z" id="Path" fill="url(#linearGradient-5)"></path>
                    <path d="M35.7511349,21.7089844 C35.0162419,21.7118397 34.1909295,22.8681818 33.5185264,25.1782126 C33.2449448,26.1180981 30.482433,35.3366493 25.2309909,52.8338664 C24.4884035,55.0782392 23.0639378,56.2306223 20.9575939,56.2910156 L16.9863281,56.2910156 L25.9810478,25.1744077 C26.7789404,22.8729228 28.2406827,21.7178484 30.3662744,21.7091846 L31.3011805,21.7091837 L35.7511349,21.7089844 Z M34.5835858,29.0624466 C35.2398233,26.7697313 35.6130785,25.4612308 35.7033512,25.1369453 C36.2740765,23.0867365 36.9598385,21.9440841 37.5983812,21.7089844 C39.6296975,21.9445149 40.7951212,23.0858409 41.0946524,25.1329624 C43.0463457,41.2893259 44.1538979,50.5214257 44.4173092,52.8292616 C44.6807205,55.1370976 45.242497,56.2910156 46.1026387,56.2910156 L42.1516781,56.2910156 L42.1178378,56.2910129 C42.1254844,56.2910348 42.1331277,56.2909263 42.1407675,56.2906875 C39.8659447,56.2204993 38.4715712,55.0666907 37.9576471,52.8292616 C36.3703834,41.3459116 35.2456963,33.4236399 34.5835858,29.0624466 Z M48.0269583,56.2910156 C47.2830261,56.078206 46.7884,54.9367905 46.5430802,52.8667693 C46.4490691,52.073499 46.251474,50.4619095 45.950295,48.0320008 C47.2764756,43.5222767 49.5167274,35.9015462 52.6710506,25.1698095 C53.4264732,22.9230503 54.8755599,21.769442 57.0183106,21.7089844 L61.0136719,21.7089844 L51.8634839,52.8586772 C51.1324425,54.9337093 49.8536006,56.0778221 48.0269583,56.2910156 L48.0269583,56.2910156 Z" id="Combined-Shape" fill="#FFFFFF"></path>
                    <path d="M133.90499,56.4952562 L126.834469,56.4952562 L113.070521,33.4693232 L113.070521,56.4952562 L106,56.4952562 L106,21.4996837 L113.070521,21.4996837 L126.858037,44.5736875 L126.858037,21.4996837 L133.90499,21.4996837 L133.90499,56.4952562 Z M168.267722,39.7906388 C168.267722,43.235733 167.670662,46.256154 166.476524,48.8519924 C165.282385,51.4478308 163.573693,53.4507625 161.350396,54.8608476 C159.127099,56.2709326 156.577809,56.9759646 153.702449,56.9759646 C150.858514,56.9759646 148.321008,56.2789444 146.089855,54.884883 C143.858701,53.4908216 142.130369,51.4999075 140.904806,48.912081 C139.679243,46.3242544 139.058614,43.3478979 139.042902,39.9829222 L139.042902,38.2523719 C139.042902,34.8072777 139.651746,31.7748392 140.869453,29.1549652 C142.08716,26.5350913 143.807636,24.5241478 146.030934,23.1220746 C148.254231,21.7200014 150.795665,21.0189753 153.655312,21.0189753 C156.514959,21.0189753 159.056393,21.7200014 161.279691,23.1220746 C163.502988,24.5241478 165.223464,26.5350913 166.441171,29.1549652 C167.658878,31.7748392 168.267722,34.799266 168.267722,38.2283365 L168.267722,39.7906388 Z M161.102928,38.2043011 C161.102928,34.5348752 160.458731,31.7467943 159.170319,29.8399747 C157.881906,27.9331551 156.043589,26.9797596 153.655312,26.9797596 C151.282748,26.9797596 149.452287,27.9211375 148.163874,29.8039216 C146.875462,31.6867056 146.223409,34.4467455 146.207697,38.084124 L146.207697,39.7906388 C146.207697,43.3639226 146.851893,46.13598 148.140306,48.1068944 C149.428718,50.0778087 151.282747,51.0632511 153.702449,51.0632511 C156.075013,51.0632511 157.897618,50.1138615 159.170319,48.2150538 C160.443019,46.316246 161.087215,43.5481944 161.102928,39.9108159 L161.102928,38.2043011 Z M185.566931,47.8184693 L193.344504,21.4996837 L201.216351,21.4996837 L189.26717,56.4952562 L181.89026,56.4952562 L169.988216,21.4996837 L177.836494,21.4996837 L185.566931,47.8184693 Z M222.050819,49.28463 L209.653839,49.28463 L207.296999,56.4952562 L199.778678,56.4952562 L212.552753,21.4996837 L219.104769,21.4996837 L231.949549,56.4952562 L224.431228,56.4952562 L222.050819,49.28463 Z M211.56288,43.4440228 L220.141779,43.4440228 L215.828761,30.3447185 L211.56288,43.4440228 Z M250.578899,46.5926629 L251.615909,51.9525617 L251.757319,51.9765971 L253.053581,46.5926629 L260.31265,21.4996837 L262.975879,21.4996837 L270.234948,46.5926629 L271.484073,52.0006325 L271.625483,51.9765971 L272.733198,46.5926629 L278.931688,21.4996837 L281.807034,21.4996837 L272.992451,56.4952562 L270.329221,56.4952562 L262.622353,29.6476913 L261.726754,25.970272 L261.585343,25.970272 L260.713312,29.6476913 L252.935739,56.4952562 L250.248941,56.4952562 L241.434358,21.4996837 L244.333272,21.4996837 L250.578899,46.5926629 Z M302.405818,56.4952562 C302.21727,55.613953 302.083717,54.852839 302.005156,54.2118912 C301.926594,53.5709435 301.887314,52.9219936 301.887314,52.2650221 C300.944573,53.6270361 299.687604,54.7566896 298.116369,55.6540164 C296.545134,56.5513433 294.777522,57 292.813478,57 C290.330927,57 288.402266,56.327015 287.027435,54.9810247 C285.652605,53.6350344 284.9652,51.8323959 284.9652,49.573055 C284.9652,47.1695009 285.982559,45.2466865 288.017308,43.8045541 C290.052057,42.3624216 292.797749,41.6413662 296.254465,41.6413662 L301.887314,41.6413662 L301.887314,38.4206199 C301.887314,36.5618714 301.302037,35.1037371 300.131468,34.0461733 C298.960898,32.9886095 297.32291,32.4598355 295.217455,32.4598355 C293.253412,32.4598355 291.62328,32.9645743 290.327012,33.974067 C289.030743,34.9835598 288.382618,36.2173657 288.382618,37.6755218 L285.790094,37.6514864 L285.742957,37.5072739 C285.648683,35.5684069 286.516777,33.8338681 288.347266,32.3036053 C290.177754,30.7733425 292.507075,30.0082226 295.335297,30.0082226 C298.147808,30.0082226 300.410352,30.7372898 302.122998,32.1954459 C303.835643,33.6536021 304.691954,35.7446627 304.691954,38.4686907 L304.691954,51.2555345 C304.691954,52.168885 304.743018,53.0581867 304.845148,53.9234662 C304.947278,54.7887456 305.116184,55.6460004 305.351869,56.4952562 L302.405818,56.4952562 Z M293.143436,54.4522454 C295.170329,54.4522454 296.961509,53.9675359 298.517032,52.9981025 C300.072554,52.028669 301.19597,50.7908572 301.887314,49.28463 L301.887314,43.8526249 L296.207328,43.8526249 C293.646216,43.8526249 291.599713,44.4094399 290.067759,45.5230867 C288.535805,46.6367334 287.76984,48.0187562 287.76984,49.6691967 C287.76984,51.0792818 288.245131,52.2289646 289.195728,53.1182796 C290.146325,54.0075946 291.462215,54.4522454 293.143436,54.4522454 Z M315.36844,56.4952562 L312.5638,56.4952562 L312.5638,19 L315.36844,19 L315.36844,56.4952562 Z M326.327748,56.4952562 L323.523108,56.4952562 L323.523108,19 L326.327748,19 L326.327748,56.4952562 Z M343.697662,57 C340.508055,57 337.856636,55.798241 335.743325,53.3946869 C333.630015,50.9911328 332.573375,47.9466767 332.573375,44.2612271 L332.573375,42.9392789 C332.573375,39.221782 333.622159,36.1372672 335.719757,33.685642 C337.817355,31.2340168 340.358789,30.0082226 343.344136,30.0082226 C346.470893,30.0082226 348.929838,31.0177002 350.721046,33.0366856 C352.512253,35.0556711 353.407844,37.7476113 353.407844,41.112587 L353.407844,43.5641999 L335.401584,43.5641999 L335.401584,44.2612271 C335.401584,47.193563 336.163621,49.6451514 337.687719,51.6160658 C339.211816,53.5869801 341.215111,54.5724225 343.697662,54.5724225 C345.457445,54.5724225 346.957951,54.324059 348.199227,53.8273245 C349.440502,53.33059 350.50107,52.6175463 351.380961,51.688172 L352.58295,53.6590765 C351.624497,54.6845929 350.410736,55.4977832 348.941631,56.0986717 C347.472527,56.6995602 345.724554,57 343.697662,57 Z M343.344136,32.4598355 C341.254393,32.4598355 339.502493,33.2730258 338.088382,34.8994307 C336.67427,36.5258357 335.849384,38.5648201 335.613699,41.0164453 L335.660836,41.1366224 L350.603204,41.1366224 L350.603204,40.4155598 C350.603204,38.1562189 349.951151,36.2654514 348.647026,34.7432005 C347.342901,33.2209496 345.575289,32.4598355 343.344136,32.4598355 Z M363.424415,23.8311195 L363.424415,30.4889311 L369.033695,30.4889311 L369.033695,32.8444023 L363.424415,32.8444023 L363.424415,49.7893738 C363.424415,51.4878854 363.726874,52.6936502 364.331799,53.4067046 C364.936724,54.119759 365.74197,54.4762808 366.74756,54.4762808 C367.203218,54.4762808 367.647086,54.4562515 368.079175,54.4161923 C368.511265,54.376133 369.010124,54.3080334 369.575769,54.2118912 L370,56.3510436 C369.52863,56.5593517 368.955137,56.7195862 368.279507,56.8317521 C367.603876,56.9439179 366.928255,57 366.252624,57 C364.461416,57 363.066966,56.4231557 362.069232,55.2694497 C361.071498,54.1157438 360.572639,52.2890701 360.572639,49.7893738 L360.572639,32.8444023 L356.165347,32.8444023 L356.165347,30.4889311 L360.572639,30.4889311 L360.572639,23.8311195 L363.424415,23.8311195 Z" id="NOVAWallet" fill="#20202F"></path>
                </g>
            </g>
        </g>
    </g>
</svg>